<svg width="121" height="62" viewBox="0 0 121 62" fill="none" xmlns="http://www.w3.org/2000/svg">
<path d="M54.9683 25L53.6723 19.636H46.4003L45.1403 25H39.0203L46.5443 0.0519993H53.7083L61.2323 25H54.9683ZM47.4083 15.352H52.6643L50.0363 4.336L47.4083 15.352ZM74.1507 5.272C75.8067 5.272 77.1027 5.776 78.0387 6.784C78.9747 7.792 79.4427 9.208 79.4427 11.032V25H73.7547V12.004C73.7547 11.044 73.5987 10.384 73.2867 10.024C72.9987 9.64 72.5547 9.448 71.9547 9.448C70.8027 9.448 69.6987 10.276 68.6427 11.932V25H62.9547V5.884H67.9227L68.3187 8.152C69.1347 7.192 70.0107 6.472 70.9467 5.992C71.9067 5.512 72.9747 5.272 74.1507 5.272ZM94.928 5.272C96.584 5.272 97.88 5.776 98.816 6.784C99.752 7.792 100.22 9.208 100.22 11.032V25H94.532V12.004C94.532 11.044 94.376 10.384 94.064 10.024C93.776 9.64 93.332 9.448 92.732 9.448C91.58 9.448 90.476 10.276 89.42 11.932V25H83.732V5.884H88.7L89.096 8.152C89.912 7.192 90.788 6.472 91.724 5.992C92.684 5.512 93.752 5.272 94.928 5.272ZM119.701 19.456C119.701 20.176 119.797 20.704 119.989 21.04C120.205 21.376 120.541 21.628 120.997 21.796L119.809 25.504C118.633 25.408 117.673 25.156 116.929 24.748C116.185 24.316 115.609 23.644 115.201 22.732C113.953 24.652 112.033 25.612 109.441 25.612C107.545 25.612 106.033 25.06 104.905 23.956C103.777 22.852 103.213 21.412 103.213 19.636C103.213 17.548 103.981 15.952 105.517 14.848C107.053 13.744 109.273 13.192 112.177 13.192H114.121V12.364C114.121 11.236 113.881 10.468 113.401 10.06C112.921 9.628 112.081 9.412 110.881 9.412C110.257 9.412 109.501 9.508 108.613 9.7C107.725 9.868 106.813 10.108 105.877 10.42L104.581 6.676C105.781 6.22 107.005 5.872 108.253 5.632C109.525 5.392 110.701 5.272 111.781 5.272C114.517 5.272 116.521 5.836 117.793 6.964C119.065 8.092 119.701 9.784 119.701 12.04V19.456ZM111.097 21.544C112.393 21.544 113.401 20.932 114.121 19.708V16.324H112.717C111.421 16.324 110.449 16.552 109.801 17.008C109.177 17.464 108.865 18.172 108.865 19.132C108.865 19.9 109.057 20.5 109.441 20.932C109.849 21.34 110.401 21.544 111.097 21.544ZM8.61884 36.052C11.9068 36.052 14.4628 36.736 16.2868 38.104C18.1108 39.472 19.0228 41.5 19.0228 44.188C19.0228 46.996 18.1228 49.12 16.3228 50.56C14.5468 51.976 12.1588 52.684 9.15884 52.684H6.45884V61H0.554844V36.052H8.61884ZM8.65484 48.436C10.0468 48.436 11.1028 48.112 11.8228 47.464C12.5668 46.792 12.9388 45.7 12.9388 44.188C12.9388 41.572 11.4748 40.264 8.54684 40.264H6.45884V48.436H8.65484ZM37.6109 51.064C37.6109 51.856 37.5749 52.54 37.5029 53.116H25.6589C25.8509 54.724 26.3069 55.852 27.0269 56.5C27.7469 57.148 28.7429 57.472 30.0149 57.472C30.7829 57.472 31.5269 57.34 32.2469 57.076C32.9669 56.788 33.7469 56.356 34.5869 55.78L36.9269 58.948C34.6949 60.724 32.2109 61.612 29.4749 61.612C26.3789 61.612 24.0029 60.7 22.3469 58.876C20.6909 57.052 19.8629 54.604 19.8629 51.532C19.8629 49.588 20.2109 47.848 20.9069 46.312C21.6029 44.752 22.6229 43.528 23.9669 42.64C25.3109 41.728 26.9189 41.272 28.7909 41.272C31.5509 41.272 33.7109 42.136 35.2709 43.864C36.8309 45.592 37.6109 47.992 37.6109 51.064ZM32.0309 49.444C31.9829 46.516 30.9509 45.052 28.9349 45.052C27.9509 45.052 27.1829 45.412 26.6309 46.132C26.1029 46.852 25.7789 48.04 25.6589 49.696H32.0309V49.444ZM46.4942 41.884V61H40.8062V41.884H46.4942ZM43.6142 31.804C44.5982 31.804 45.4022 32.116 46.0262 32.74C46.6742 33.34 46.9982 34.108 46.9982 35.044C46.9982 35.98 46.6742 36.76 46.0262 37.384C45.4022 37.984 44.5982 38.284 43.6142 38.284C42.6302 38.284 41.8262 37.984 41.2022 37.384C40.5782 36.76 40.2662 35.98 40.2662 35.044C40.2662 34.108 40.5782 33.34 41.2022 32.74C41.8262 32.116 42.6302 31.804 43.6142 31.804ZM61.3704 50.776L67.5264 61H61.0824L57.7704 53.836L54.5304 61H48.3384L54.4944 50.956L48.9504 41.884H55.3224L57.9864 48.004L60.5424 41.884H66.5904L61.3704 50.776ZM77.2112 41.272C80.1392 41.272 82.4312 42.172 84.0872 43.972C85.7432 45.748 86.5712 48.244 86.5712 51.46C86.5712 53.5 86.1872 55.288 85.4192 56.824C84.6752 58.336 83.5952 59.512 82.1792 60.352C80.7872 61.192 79.1312 61.612 77.2112 61.612C74.3072 61.612 72.0152 60.724 70.3352 58.948C68.6792 57.148 67.8512 54.64 67.8512 51.424C67.8512 49.384 68.2232 47.608 68.9672 46.096C69.7352 44.56 70.8152 43.372 72.2072 42.532C73.6232 41.692 75.2912 41.272 77.2112 41.272ZM77.2112 45.448C76.0592 45.448 75.1952 45.94 74.6192 46.924C74.0432 47.884 73.7552 49.384 73.7552 51.424C73.7552 53.512 74.0312 55.036 74.5832 55.996C75.1592 56.956 76.0352 57.436 77.2112 57.436C78.3632 57.436 79.2272 56.956 79.8032 55.996C80.3792 55.012 80.6672 53.5 80.6672 51.46C80.6672 49.372 80.3792 47.848 79.8032 46.888C79.2512 45.928 78.3872 45.448 77.2112 45.448ZM101.943 60.1C101.247 60.58 100.431 60.952 99.4947 61.216C98.5827 61.48 97.6707 61.612 96.7587 61.612C92.5827 61.588 90.4947 59.284 90.4947 54.7V45.844H87.7947V41.884H90.4947V37.744L96.1827 37.096V41.884H100.575L99.9627 45.844H96.1827V54.628C96.1827 55.516 96.3267 56.152 96.6147 56.536C96.9027 56.92 97.3587 57.112 97.9827 57.112C98.6307 57.112 99.3147 56.908 100.035 56.5L101.943 60.1ZM111.489 41.272C114.417 41.272 116.709 42.172 118.365 43.972C120.021 45.748 120.849 48.244 120.849 51.46C120.849 53.5 120.465 55.288 119.697 56.824C118.953 58.336 117.873 59.512 116.457 60.352C115.065 61.192 113.409 61.612 111.489 61.612C108.585 61.612 106.293 60.724 104.613 58.948C102.957 57.148 102.129 54.64 102.129 51.424C102.129 49.384 102.501 47.608 103.245 46.096C104.013 44.56 105.093 43.372 106.485 42.532C107.901 41.692 109.569 41.272 111.489 41.272ZM111.489 45.448C110.337 45.448 109.473 45.94 108.897 46.924C108.321 47.884 108.033 49.384 108.033 51.424C108.033 53.512 108.309 55.036 108.861 55.996C109.437 56.956 110.313 57.436 111.489 57.436C112.641 57.436 113.505 56.956 114.081 55.996C114.657 55.012 114.945 53.5 114.945 51.46C114.945 49.372 114.657 47.848 114.081 46.888C113.529 45.928 112.665 45.448 111.489 45.448Z" fill="#141414"/>
</svg>
